<svg width="170" xmlns="http://www.w3.org/2000/svg" viewBox="0 0 170 170" height="170"><path d="m150.4 130.3c-2.4 5.7-5.3 10.9-8.7 15.7-4.6 6.5-8.3 11.1-11.2 13.6-4.5 4.1-9.3 6.2-14.4 6.4-3.7 0-8.1-1-13.3-3.2-5.2-2.1-10-3.2-14.3-3.2-4.6 0-9.5 1.1-14.7 3.2-5.3 2.1-9.5 3.2-12.7 3.4-4.9 0.2-9.8-2-14.7-6.5-3.1-2.7-7-7.4-11.7-14-5-7.1-9.2-15.3-12.4-24.6-3.5-10.1-5.2-19.9-5.2-29.4 0-10.9 2.3-20.2 7-28.1 3.7-6.3 8.6-11.3 14.8-14.9s12.8-5.5 19.9-5.6c3.9 0 9 1.2 15.4 3.6 6.4 2.4 10.4 3.6 12.2 3.6 1.3 0 5.9-1.4 13.6-4.2 7.3-2.6 13.4-3.7 18.4-3.3 13.6 1.1 23.9 6.5 30.7 16.2-12.2 7.4-18.2 17.7-18.1 31 0.1 10.3 3.9 18.9 11.2 25.8 3.3 3.2 7.1 5.6 11.2 7.4-0.9 2.6-1.8 5.1-2.9 7.5zm-31.3-123c0 8.1-3 15.7-8.9 22.7-7.1 8.3-15.7 13.1-25.1 12.4-0.1-1-0.2-2-0.2-3.1 0-7.8 3.4-16.1 9.4-22.9 3-3.4 6.8-6.3 11.5-8.6 4.6-2.3 9-3.5 13.1-3.7 0.1 1.1 0.2 2.2 0.2 3.2z" fill="#FFF"/></svg>