<?xml version="1.0" encoding="utf-8"?>
<!-- Generator: Adobe Illustrator 24.0.1, SVG Export Plug-In . SVG Version: 6.00 Build 0)  -->
<svg version="1.1" id="Layer_1" xmlns="http://www.w3.org/2000/svg" xmlns:xlink="http://www.w3.org/1999/xlink" x="0px" y="0px"
	 viewBox="0 0 679.5 496.6" style="enable-background:new 0 0 679.5 496.6;" xml:space="preserve">
<style type="text/css">
	.st0{fill:#FFFFFF;}
	.st1{fill:none;}
</style>
<g>
	<path class="st0" d="M244.8,326.7H225l-3.9,14.7h-15.4l22.5-71.9h13.3l22.6,72h-15.5L244.8,326.7z M228.1,314.6h13.4l-6.7-25.6
		L228.1,314.6z"/>
	<path class="st0" d="M311.5,281.6h-17.8v59.8h-14.6v-59.8h-17.5v-12.1h49.9V281.6z"/>
	<path class="st0" d="M367.3,281.6h-17.8v59.8h-14.6v-59.8h-17.5v-12.1h49.9L367.3,281.6L367.3,281.6z"/>
	<path class="st0" d="M424.9,311.9c0,9.6-2.3,17.1-6.8,22.5s-10.9,8-19,8c-8.1,0-14.4-2.6-19-7.9c-4.6-5.3-7-12.7-7-22.2V300
		c0-9.9,2.3-17.6,6.9-23.1s10.9-8.3,19.1-8.3c8,0,14.3,2.7,18.9,8.2c4.6,5.5,7,13.1,7,23L424.9,311.9L424.9,311.9z M410.3,299.9
		c0-6.5-0.9-11.3-2.8-14.5c-1.9-3.2-4.7-4.7-8.6-4.7c-3.9,0-6.7,1.5-8.5,4.6c-1.8,3-2.8,7.7-2.9,13.9v12.8c0,6.3,0.9,10.9,2.8,13.9
		s4.8,4.5,8.7,4.5c3.8,0,6.6-1.5,8.5-4.4c1.8-2.9,2.8-7.4,2.8-13.6L410.3,299.9L410.3,299.9z"/>
	<path class="st0" d="M457.1,315.1h-7.2v26.3h-14.5v-71.9h23.2c7.3,0,12.9,1.9,16.9,5.7s6,9.1,6,16.1c0,9.5-3.5,16.2-10.4,20.1
		l12.6,29.5v0.7h-15.6L457.1,315.1z M449.9,303h8.3c2.9,0,5.1-1,6.5-2.9c1.5-1.9,2.2-4.5,2.2-7.7c0-7.2-2.8-10.8-8.5-10.8h-8.5
		L449.9,303L449.9,303z"/>
	<path class="st0" d="M541.7,341.4h-14.5l-21.3-47.2v47.2h-14.5v-71.9h14.5l21.3,47.2v-47.2h14.5L541.7,341.4L541.7,341.4z"/>
	<path class="st0" d="M590.5,310.3h-22.6v19.1h26.8v12.1h-41.3v-71.9h41.2v12.1h-26.7v17h22.6L590.5,310.3L590.5,310.3z"/>
	<path class="st0" d="M624.7,301.8l10.8-32.3h15.8L632,315.3v26.1h-14.7v-26.1L598,269.5h15.8L624.7,301.8z"/>
	<path class="st0" d="M351.1,401.9c0,9.6-2.3,17.1-6.8,22.5c-4.6,5.3-10.9,8-19,8c-8.1,0-14.4-2.6-19-7.9c-4.6-5.3-7-12.7-7-22.2
		V390c0-9.9,2.3-17.6,6.9-23.1s10.9-8.3,19.1-8.3c8,0,14.3,2.7,18.9,8.2c4.6,5.5,7,13.1,7,23L351.1,401.9L351.1,401.9z M336.5,389.9
		c0-6.5-0.9-11.3-2.8-14.5c-1.9-3.2-4.7-4.7-8.6-4.7c-3.9,0-6.7,1.5-8.5,4.6c-1.9,3-2.8,7.7-2.9,13.9v12.8c0,6.3,0.9,10.9,2.8,13.9
		s4.8,4.5,8.7,4.5c3.8,0,6.6-1.5,8.5-4.4c1.8-2.9,2.8-7.4,2.8-13.6L336.5,389.9L336.5,389.9z"/>
	<path class="st0" d="M411.9,431.4h-14.5l-21.3-47.2v47.2h-14.5v-72h14.5l21.3,47.2v-47.2h14.5V431.4z"/>
	<path class="st0" d="M438,419.4h25.5v12.1h-40v-72H438V419.4z"/>
	<path class="st0" d="M487.1,431.4h-14.5v-72h14.5V431.4z"/>
	<path class="st0" d="M549.6,431.4h-14.5l-21.3-47.2v47.2h-14.5v-72h14.5l21.3,47.2v-47.2h14.5L549.6,431.4L549.6,431.4z"/>
	<path class="st0" d="M598.4,400.3h-22.6v19.1h26.8v12.1h-41.3v-72h41.2v12.1h-26.7v17h22.6V400.3z"/>
</g>
<path class="st0" d="M103.1,58.4c-0.5,0-0.9,0-1.2,0.2C101.9,58.5,102.4,58.5,103.1,58.4z"/>
<g>
	<path class="st1" d="M230.5,97.1c1.5-1.4,3.7-3.4,3.7-3.4s18.3-29.4,12.1-35.2c0,0-2.5-2.8-2.9,4.7c0,0-4,19.9-7.5,20c0,0,0,0,0,0
		c0,0-3.3,8.4-5.4,10.7c-0.2,0.3-0.4,0.6-0.3,1C230.2,95,230.5,97.1,230.5,97.1z"/>
	<path class="st0" d="M678.9,61.7l-11.3-1.1l-21.4-1l-10.5-3l-10.1-3l-12.5-2l-21-2.6l-3.4-2l-12.7-5.9l-14.8,10.5l-41.7,31.8
		l-1.8,0.3l-2.6,0.3l-7.9-2.1l-8.2,1.6l-11.1,5.8l-31.9,18.7l-41.9,24l-10.5,4.5l-22.9,1.3L364.4,149c0,0-4,1.6-4.7,1.6
		c-0.8,0-11.6,1.6-11.6,1.6l-27.4,1.7c0,0-3.8-2.5-4.4-2.5s-13.6-0.3-13.6-0.3l-1.1-1.7l-14.5-5.9l-12.8-3l-17.9-0.7l-2.8,1.5
		l-5.7,4.1l-6.2,1.5l-9.5,3.3l-15.6,7.1l-4.1-4.9l-4.2-4.4l0.7-2.9l3.2-9.9l6.2-6.1l1.3-5l2.5-2.6l3.3-6.1l6.7-7.5l-1.7-10.6
		c0.9-0.8,2.3-2,4.3-3.9c12.4-11.2,21.6-35.9,20.6-39c-1-3.1-15.2-4.2-15.3-4.2c0,0,0,0,0,0c11.6-4.7,12.7-7.4,12.7-7.4V26.9
		l-14.2-1.6l-14.8-11.6L214,3.8L197.4,0c-34.8,0-116,10-116,10c12.7,0.5,34.8,13.2,34.8,13.2c-4.2-0.5-27,3.5-27,3.5
		c6.8-0.7,33.3,12.8,33.3,12.8c-4.7-1.1-23.7,3.7-23.7,3.7c3.1,0,22.2,11.6,22.2,11.6l-0.5,3.5h0c-5.5-1.4-14.2-0.4-17.3,0
		c5,0.3,21,8.6,21,8.6l1.6,6.3c0,0,0,0,0,0c-5.3-0.5-11.1,3.4-11.1,3.4l6.3,0c11-1.3,13.8,26.1,13.8,26.1s-7.4,39.6-9.5,39.6
		c-2.1,0-5.3,2.1-5.3,2.1l-3.2,9.5l-8.4,2.1l-8.4,10.5l-10,10l-9,3.2l-22.7,11.1L36,201.5c0,0,0,0,0,0c1.1,2.1-6.3,6.3-6.3,9
		c0,2.6-4.2,14.2-4.2,14.2v9.5c0,0,0,0,0,0C12,285.1,5.6,315.1,2.6,331.5c38.3,91.5,129.8,161.8,235.3,165l-1.8-1.3l2.3,1.4
		c0,0-10.4-39.6-10.4-61c0-27.2,5.9-53,16.5-76.1c0.2-1.5,0.4-3,0.7-4.5h-33.5c-10.7,0-19.4-8.7-19.4-19.4v-57.2
		c0-10.7,8.7-19.4,19.4-19.4l92.9,0c0,0,0,0,0,0c1.2-0.9,2.3-1.8,3.5-2.5c5.3-3.4,12.8-4.6,18.8-6.5c14.4-4.6,28.9-9.1,43.3-13.7
		c0,0,24.9-6,26.3-6.3c0,0,0.1,0,0.1,0l21.8-2.4l14.8-6.3l32.4-17.9l14.2-9l39.6-12.9l5.9-2.2l10.9-9.5l2.4-4.4l4.4-21.2l0.4-9.5
		l1.7,0.4c0,0,0.1,0,0.1,0l4.3,0.6l4.9-1.4c6.4-2.8,12.2-5.9,19.2-6.7c0,0,0,0,0,0c-0.1,3.3,1,6.5,3.1,9.1
		c6.2-0.1,12.4-0.4,18.5-1.1c3.3-0.3,6.9-0.9,9-3.5c2.8-3.5,1.5-9.3,4.8-12.3c1.1-1,2.5-1.5,3.7-2.3c2.6-1.9,4-5.4,3.3-8.5
		c-0.4-1.8-1.4-3.8-0.3-5.4c0.5-0.7,1.4-1.1,1.9-1.9c0.6-0.9,0.6-2,0.4-3c-0.5-4.9-2.4-10.2-4.9-14.5c0,0-2.8-4.7-2.8-4.7h14.1
		l12.9,2.9l20.6,0.8c17.3-1.8,21.5-14.2,21.5-14.2L678.9,61.7z M230.5,94.1c2.1-2.3,5.4-10.7,5.4-10.7c0,0,0,0,0,0
		c3.6-0.1,7.5-20,7.5-20c0.4-7.5,2.9-4.7,2.9-4.7c6.2,5.8-12.1,35.2-12.1,35.2s-2.2,2-3.7,3.4c0,0-0.3-2.1-0.3-2.1
		C230.2,94.7,230.3,94.3,230.5,94.1z"/>
</g>
</svg>
