<?xml version="1.0" encoding="utf-8"?>
<!-- Generator: Adobe Illustrator 24.0.1, SVG Export Plug-In . SVG Version: 6.00 Build 0)  -->
<svg version="1.1" id="Layer_1" xmlns="http://www.w3.org/2000/svg" xmlns:xlink="http://www.w3.org/1999/xlink" x="0px" y="0px"
	 viewBox="0 0 651.32 504" style="enable-background:new 0 0 651.32 504;" xml:space="preserve">
<style type="text/css">
	.st0{fill:#FFFFFF;}
</style>
<path class="st0" d="M248.36,504c0,0-169.75-19.08-248.36-152.08l22.27-79.8l0.92-10.09L25.94,252l1.38-6.47l4.59-6.42l4.13-5.5
	l43.57-26.14c0,0,8.71-4.13,12.38-10.09l8.25-9.17l5.5-5.5l6.42-5.04l1.83-5.5c0,0,2.95-8.71,10.19-8.71l6.32-46.32l-6.32-23.85
	l-14.32-5.04l11.01-4.13l-1.38-5.04L99.32,67.59h17.43l-1.38-3.21L95.65,50.62l18.34-3.67l-2.29-3.21l-22.47-9.63l10.09-3.67
	l5.96-2.29h4.59l-0.92-3.67l-28.89-13.3l32.56-4.13l46.78-5.04L179.57,0h15.59c0,0,15.59,5.68,17.43,5.68l1.38,5.5l19.72,18.8
	l14.68,2.29l-1.83,20.18l-6.42,5.04c0,0-0.92,2.75,2.29,2.75s9.63,1.38,9.63,1.38s-2.75,30.73-22.47,46.32
	c0,0,15.59-28.43,11.46-38.52h-3.21l-2.75,17.43l-1.22,8.94l-6.04,9.48l-1.3,2.22v12l2.37,4.05l-2.52,5.27l-18.57,31.87l-2.75,11.24
	l1.61,0.92l3.67,8.48l1.83,0.46L233,171.01l13.3-5.73l5.73-4.59c0,0,21.78,3.9,25.45,2.75l1.83,2.52l19.72,9.86l11.69,0.23
	l3.44,1.83l32.56-1.61l9.86-3.21l16.97-14.22l24.08-0.69l87.59-59.62l4.82-2.29c0,0,3.9-3.9,16.74,2.52l53.2-38.52l5.04-3.21
	l4.13-0.92l15.36,0.23l6.88,2.52l7.8,0.69l11.24,1.38l5.73,2.29l3.21,1.61l17.89,0.92l7.11,1.83l6.64,1.38v28.89l-10.54,1.15
	c0,0-24.54-1.61-29.58-4.36l-10.32,0.23l6.65,19.95c0,0,2.06,1.61-3.21,7.34l2.75,8.48l-9.86,11.92l-2.29,10.78
	c0,0-1.61,4.36-9.63,7.11l-19.26,1.61l-4.13-5.5l-1.61-5.96l-22.7,10.09l-0.69-2.06l-2.75,0.23c0,0-5.27,39.21-6.19,39.9
	c-0.92,0.69-13.3,11.92-13.3,11.92l-41.96,16.74l-33.25,22.93l-28.89,16.05l-201.55,0.46c0,0-14.9,2.06-17.43,15.59l0.23,64.43
	c0,0,4.13,15.36,14.9,15.36l50.22,0.23C256.62,362.47,221.99,431.36,248.36,504z"/>
<g>
	<path class="st0" d="M244.79,334.07h-19.81l-3.85,14.73h-15.37l22.48-71.95h13.29l22.63,71.95h-15.52L244.79,334.07z
		 M228.14,321.96h13.44l-6.72-25.65L228.14,321.96z"/>
	<path class="st0" d="M311.55,288.95h-17.79v59.84h-14.58v-59.84h-17.49v-12.11h49.86V288.95z"/>
	<path class="st0" d="M367.29,288.95H349.5v59.84h-14.58v-59.84h-17.49v-12.11h49.86V288.95z"/>
	<path class="st0" d="M424.9,319.29c0,9.65-2.28,17.15-6.84,22.48s-10.9,8-19,8c-8.07,0-14.41-2.64-19.02-7.93
		c-4.61-5.29-6.95-12.69-7.02-22.21v-12.3c0-9.88,2.29-17.6,6.87-23.15c4.58-5.55,10.94-8.33,19.07-8.33c8,0,14.31,2.73,18.93,8.18
		c4.61,5.45,6.95,13.1,7.02,22.95V319.29z M410.33,307.24c0-6.49-0.92-11.32-2.77-14.48c-1.85-3.16-4.71-4.74-8.6-4.74
		c-3.85,0-6.7,1.52-8.55,4.57c-1.84,3.05-2.8,7.68-2.87,13.91v12.8c0,6.29,0.94,10.93,2.82,13.91s4.78,4.47,8.7,4.47
		c3.79,0,6.6-1.46,8.45-4.37c1.84-2.92,2.78-7.44,2.82-13.56V307.24z"/>
	<path class="st0" d="M457.12,322.51h-7.21v26.29h-14.53v-71.95h23.17c7.28,0,12.91,1.89,16.88,5.66c3.97,3.77,5.95,9.13,5.95,16.08
		c0,9.55-3.48,16.24-10.43,20.06l12.6,29.45v0.69h-15.62L457.12,322.51z M449.91,310.4h8.25c2.9,0,5.07-0.96,6.52-2.89
		c1.45-1.93,2.17-4.5,2.17-7.73c0-7.21-2.82-10.82-8.45-10.82h-8.5V310.4z"/>
	<path class="st0" d="M541.67,348.79h-14.53l-21.25-47.19v47.19h-14.53v-71.95h14.53l21.3,47.24v-47.24h14.48V348.79z"/>
	<path class="st0" d="M590.49,317.66h-22.63v19.07h26.78v12.06h-41.31v-71.95h41.21v12.11h-26.68v17h22.63V317.66z"/>
	<path class="st0" d="M624.69,309.17l10.82-32.32h15.81l-19.27,45.86v26.09h-14.73V322.7L598,276.85h15.81L624.69,309.17z"/>
	<path class="st0" d="M351.12,409.31c0,9.65-2.28,17.15-6.84,22.48c-4.56,5.34-10.9,8-19,8c-8.07,0-14.41-2.64-19.02-7.93
		c-4.61-5.29-6.95-12.69-7.02-22.21v-12.3c0-9.88,2.29-17.6,6.87-23.15c4.58-5.55,10.94-8.33,19.07-8.33
		c8.01,0,14.31,2.73,18.93,8.18c4.61,5.45,6.95,13.1,7.02,22.95V409.31z M336.54,397.25c0-6.49-0.92-11.32-2.77-14.48
		c-1.85-3.16-4.71-4.74-8.6-4.74c-3.85,0-6.7,1.52-8.55,4.57c-1.85,3.05-2.8,7.68-2.87,13.91v12.8c0,6.29,0.94,10.93,2.82,13.91
		c1.88,2.98,4.78,4.47,8.7,4.47c3.79,0,6.6-1.46,8.45-4.37c1.84-2.92,2.78-7.44,2.82-13.56V397.25z"/>
	<path class="st0" d="M411.85,438.81h-14.53l-21.25-47.19v47.19h-14.53v-71.95h14.53l21.3,47.24v-47.24h14.48V438.81z"/>
	<path class="st0" d="M438.04,426.75h25.5v12.06h-40.03v-71.95h14.53V426.75z"/>
	<path class="st0" d="M487.1,438.81h-14.53v-71.95h14.53V438.81z"/>
	<path class="st0" d="M549.61,438.81h-14.53l-21.25-47.19v47.19h-14.53v-71.95h14.53l21.3,47.24v-47.24h14.48V438.81z"/>
	<path class="st0" d="M598.43,407.68H575.8v19.07h26.78v12.06h-41.31v-71.95h41.21v12.11H575.8v17h22.63V407.68z"/>
</g>
</svg>
